<svg width="200" height="200" viewBox="0 0 200 200" fill="none" xmlns="http://www.w3.org/2000/svg">
<g clip-path="url(#clip0)">
<path d="M200.998 71.4643L104.651 0.0543218L100.607 0L-1 71.41V79.3771L10.5523 87.4959L-1 95.6147V103.58L11.1268 112.103L-1 120.625V128.59L100.61 200L104.653 199.946L201 128.536V120.679L189.427 112.103L201 103.527V95.6713L189.972 87.4982L201 79.3251V71.4643H200.998ZM8.63375 99.5982L18.2039 92.8737L28.3463 100.001L18.7761 106.726L8.63375 99.5982ZM102.537 141.387L43.6495 100.001L102.537 58.615L158.376 100.001L102.537 141.387ZM165.737 105.456L174.705 112.103L102.537 165.592L26.4277 112.103L35.9979 105.379L100.607 150.785L104.651 150.731L165.737 105.456ZM104.651 49.2718L100.607 49.2174L35.9979 94.6233L25.8533 87.4936L102.537 33.6023L175.25 87.4936L165.737 94.5441L104.651 49.2718ZM191.58 124.609L102.537 190.602L8.63375 124.609L18.7784 117.479L100.61 174.987L104.653 174.933L182.069 117.556L191.58 124.609ZM191.58 99.5982L182.066 106.649L173.098 100.001L182.611 92.9507L191.58 99.5982ZM182.611 82.0411L104.651 24.2613L100.607 24.207L18.2039 82.1181L8.63375 75.3935L102.537 9.39986L191.577 75.3935L182.611 82.0411Z" fill="white"/>
</g>
<defs>
<clipPath id="clip0">
<rect width="200" height="200" fill="white"/>
</clipPath>
</defs>
</svg>
