<svg width="200" height="200" viewBox="0 0 200 200" fill="none" xmlns="http://www.w3.org/2000/svg">
<g clip-path="url(#clip0)">
<rect width="200" height="200" fill="white"/>
<rect width="200" height="200" rx="50" fill="url(#paint0_linear)"/>
<path d="M174.731 77.8186L103.442 24.8146L100.45 24.7742L25.2686 77.7782V83.6918L33.8164 89.718L25.2686 95.7442V101.656L34.2414 107.983L25.2686 114.308V120.22L100.452 173.224L103.444 173.184L174.733 120.18V114.348L166.17 107.983L174.733 101.617V95.7862L166.573 89.7197L174.733 83.6532V77.8186H174.731ZM32.3968 98.701L39.478 93.7097L46.9826 99L39.9014 103.991L32.3968 98.701ZM101.878 129.719L58.3058 99L101.878 68.2812L143.194 99L101.878 129.719ZM148.641 103.049L155.277 107.983L101.878 147.685L45.563 107.983L52.6442 102.992L100.45 136.694L103.442 136.654L148.641 103.049ZM103.442 61.3462L100.45 61.3058L52.6442 95.0083L45.1379 89.7163L101.878 49.7155L155.68 89.7163L148.641 94.9495L103.442 61.3462ZM167.763 117.265L101.878 166.249L32.3968 117.265L39.903 111.973L100.452 154.658L103.444 154.618L160.725 112.03L167.763 117.265ZM167.763 98.701L160.724 103.934L154.088 99L161.127 93.7668L167.763 98.701ZM161.127 85.6692L103.442 42.7822L100.45 42.7418L39.478 85.7263L32.3968 80.735L101.878 31.7513L167.761 80.735L161.127 85.6692Z" fill="black" fill-opacity="0.2"/>
<path d="M174.731 78.8186L103.442 25.8146L100.45 25.7742L25.2686 78.7782V84.6918L33.8164 90.718L25.2686 96.7442V102.656L34.2414 108.983L25.2686 115.308V121.22L100.452 174.224L103.444 174.184L174.733 121.18V115.348L166.17 108.983L174.733 102.617V96.7862L166.573 90.7197L174.733 84.6532V78.8186H174.731ZM32.3968 99.701L39.478 94.7097L46.9826 100L39.9014 104.991L32.3968 99.701ZM101.878 130.719L58.3058 100L101.878 69.2812L143.194 100L101.878 130.719ZM148.641 104.049L155.277 108.983L101.878 148.685L45.563 108.983L52.6442 103.992L100.45 137.694L103.442 137.654L148.641 104.049ZM103.442 62.3462L100.45 62.3058L52.6442 96.0083L45.1379 90.7163L101.878 50.7155L155.68 90.7163L148.641 95.9495L103.442 62.3462ZM167.763 118.265L101.878 167.249L32.3968 118.265L39.903 112.973L100.452 155.658L103.444 155.618L160.725 113.03L167.763 118.265ZM167.763 99.701L160.724 104.934L154.088 100L161.127 94.7668L167.763 99.701ZM161.127 86.6692L103.442 43.7822L100.45 43.7418L39.478 86.7263L32.3968 81.735L101.878 32.7513L167.761 81.735L161.127 86.6692Z" fill="#E0F2FE"/>
</g>
<defs>
<linearGradient id="paint0_linear" x1="100" y1="0" x2="100" y2="200" gradientUnits="userSpaceOnUse">
<stop stop-color="#7801C6"/>
<stop offset="1" stop-color="#5600A4"/>
</linearGradient>
<clipPath id="clip0">
<rect width="200" height="200" fill="white"/>
</clipPath>
</defs>
</svg>
